<svg width="39" height="33" viewBox="0 0 39 33" fill="none" xmlns="http://www.w3.org/2000/svg">
<path d="M32.0383 19.1758C34.2008 19.1549 36.3596 18.9881 38.5 18.6766C37.6827 17.6496 36.9252 16.5756 36.2315 15.4599C35.4479 14.4061 34.623 13.3939 33.7706 12.3818C29.8192 7.93246 25.3297 4.00094 20.4074 0.6794C19.9475 0.274507 19.367 0.035484 18.7576 0C18.1409 0.118542 17.583 0.446361 17.1766 0.928977C13.3881 4.34994 9.79408 7.98382 6.4117 11.8133C4.26544 14.3579 2.29047 17.0446 0.5 19.8552C2.356 19.8552 4.52822 19.6195 6.38422 19.5918V32.8748C6.38422 33.055 6.12301 32.9857 6.30173 32.9857C8.32013 33.0316 10.3395 32.9668 12.3509 32.7916C12.6534 32.7916 12.9696 32.7916 13.2721 32.7916C13.2721 32.1538 13.2721 31.4882 13.2721 30.8504C13.2721 30.2126 13.2721 29.561 13.3408 28.9093C13.4233 27.6198 13.3408 24.4169 13.602 23.1413C16.6404 23.0026 19.6925 22.9056 22.7308 22.7669C23.1295 22.7669 23.5419 22.7669 23.9406 22.7669C24.3031 22.6957 24.6713 22.6586 25.0405 22.656C25.0405 23.2938 25.2055 25.9005 25.1917 26.5244L25.1642 28.4795C25.1642 29.866 25.0543 31.1416 25.013 32.4727C25.1866 32.4519 25.3619 32.4519 25.5354 32.4727C26.704 32.4727 27.8726 32.6252 29.0412 32.6668C29.6462 32.6668 31.5159 32.9857 32.0383 32.6668C32.2996 32.5004 32.3545 32.0429 32.3683 31.7517C32.3958 27.9664 31.7634 23.1274 32.0383 19.1758Z" fill="#8F0E35"/>
</svg>
