<svg width="38" height="33" viewBox="0 0 38 33" fill="none" xmlns="http://www.w3.org/2000/svg">
<path d="M32.2246 14.95C31.9306 11.7665 30.7377 8.73886 28.7908 6.23531C26.844 3.73176 24.2272 1.86019 21.2586 0.848175C18.2901 -0.163842 15.0977 -0.2727 12.0697 0.534884C9.04175 1.34247 6.30866 3.03169 4.20286 5.39707C2.09705 7.76246 0.70927 10.7021 0.20828 13.8585C-0.29271 17.0149 0.114683 20.252 1.38091 23.1762C2.64715 26.1004 4.71764 28.5857 7.34062 30.3297C9.9636 32.0738 13.026 33.0015 16.1554 33V26.8095C14.2225 26.8129 12.3292 26.2491 10.7006 25.1852C9.07202 24.1212 7.77665 22.6019 6.96847 20.8077C6.16028 19.0135 5.87327 17.0199 6.14153 15.0639C6.40979 13.1078 7.22204 11.2717 8.48176 9.77355C9.74147 8.27544 11.3957 7.17842 13.2477 6.61286C15.0998 6.04731 17.0718 6.037 18.9294 6.58318C20.787 7.12935 22.4521 8.20906 23.7267 9.69393C25.0014 11.1788 25.832 13.0064 26.1198 14.9595H20.066L29.033 27.0797L38 14.9595L32.2246 14.95Z" fill="#235723"/>
</svg>
