<svg width="47" height="44" viewBox="0 0 47 44" fill="none" xmlns="http://www.w3.org/2000/svg">
<g clip-path="url(#clip0_934_16388)">
<path d="M4.35609 4.76844C3.32558 14.9044 3.26584 25.1493 4.17687 35.2951C4.28141 36.4835 4.42578 37.7313 5.08789 38.6919C6.12338 40.1923 8.06989 40.5339 9.81229 40.6924C18.4745 41.4747 27.1915 40.6874 35.8537 39.8952C37.0485 39.7862 38.308 39.6525 39.2937 38.9296C40.9913 37.6818 41.295 35.1911 41.3647 33.0025C41.6235 24.7779 40.7424 16.5681 39.8612 8.39302C39.7218 7.09075 39.5177 5.65973 38.5818 4.80806C37.7504 4.05046 36.5656 3.96628 35.4754 3.92172C24.9961 3.51073 14.4919 3.78307 4.04245 4.73873" fill="#A4EABB"/>
<path d="M5.61539 21.0592C5.42621 21.0592 5.34158 18.4448 5.42123 15.2312C5.50089 12.0176 5.71495 9.41302 5.90413 9.41798C6.0933 9.42293 6.17793 12.0324 6.09828 15.246C6.01863 18.4596 5.80456 21.0642 5.61539 21.0592Z" fill="white"/>
<path d="M46.9901 38.4258C46.6615 27.9779 46.333 17.5201 46.0044 7.07216C45.9845 6.54234 45.9596 5.96795 45.6012 5.54211C45.1481 5.00238 44.3267 4.85879 43.585 4.76966C43.57 4.76966 43.5551 4.76966 43.5451 4.76471C41.5289 4.50227 39.7865 5.9828 40.145 7.65645C40.1699 7.76538 40.1898 7.87432 40.2097 7.9783C40.4486 9.32019 40.6229 10.672 40.7324 12.0287C41.0162 15.5047 41.2601 18.9808 41.4144 22.4618C41.5688 25.9873 41.7281 29.5673 41.4791 33.0879C41.3348 35.1131 40.7374 37.2572 38.8456 38.6585C36.5556 40.3519 33.1704 40.04 30.3377 40.0251C26.3999 40.0004 22.487 40.3965 18.5492 40.446C13.1079 40.5153 7.76122 39.7528 2.37471 39.4111C1.06542 39.3269 -0.0397589 40.2182 6.73871e-05 41.3175V41.3422C0.0299371 42.08 0.0946549 42.8971 0.677114 43.4219C1.29442 43.9716 2.26519 44.0062 3.13639 44.0013C16.0202 43.9319 28.904 43.8626 41.7878 43.7933C43.0822 43.7933 44.4711 43.7487 45.4916 43.0406C46.9652 42.0206 47.0449 40.0944 46.9901 38.4258Z" fill="white"/>
<path d="M4.89875 36.1668C4.5901 36.2361 3.79357 33.7306 3.56457 30.517C3.32562 27.3083 3.74379 24.7137 4.05742 24.7385C4.39097 24.7583 4.49551 27.3133 4.73447 30.4328C4.95849 33.5573 5.22234 36.0974 4.89875 36.1668Z" fill="#0F1C1B"/>
<path d="M41.3498 34.0983C41.0162 34.0686 41.056 30.6569 40.9366 26.4728C40.832 22.2837 40.613 18.882 40.9465 18.8325C41.2552 18.7879 42.0069 22.1798 42.1114 26.4381C42.2309 30.7015 41.6634 34.128 41.3498 34.0983Z" fill="#0F1C1B"/>
<path d="M38.2931 38.9694C38.1935 38.6525 39.0498 38.1078 39.7318 37.162C40.4487 36.241 40.7275 35.2656 41.061 35.2755C41.2154 35.2854 41.3597 35.5775 41.3448 36.0776C41.3348 36.5678 41.1307 37.2512 40.6727 37.8602C40.2147 38.4693 39.6173 38.8604 39.1444 39.009C38.6715 39.1674 38.3429 39.113 38.2931 38.9694Z" fill="#0F1C1B"/>
<path d="M19.0023 4.04602C18.9675 4.37282 16.1398 4.3134 12.6749 4.36292C9.21006 4.39758 6.38737 4.52632 6.34257 4.19952C6.29776 3.88757 9.11547 3.23395 12.66 3.19434C16.2046 3.14482 19.0372 3.73407 19.0023 4.04602Z" fill="#0F1C1B"/>
<path d="M0.627367 3.54083C0.179321 14.6621 0.104647 25.7983 0.418279 36.9246C0.453127 38.1575 0.358539 39.4895 0.607454 40.7076C0.831477 41.792 1.61805 42.4308 2.68838 42.6239C3.90806 42.8418 5.23228 42.7031 6.46192 42.6932C7.82099 42.6833 9.18504 42.6783 10.5441 42.6684C16.1497 42.6338 21.7602 42.6041 27.3657 42.5694C30.1685 42.5546 32.9713 42.5348 35.779 42.5199C37.163 42.51 38.5519 42.51 39.9359 42.4951C41.066 42.4803 42.2359 42.3813 43.2465 41.8316C45.1581 40.7918 45.4568 38.6279 45.422 36.6522C45.3722 33.8942 45.2677 31.1312 45.188 28.3732C45.0287 22.8224 44.8744 17.2766 44.7151 11.7258C44.6752 10.3295 44.6354 8.93314 44.5956 7.53183C44.5607 6.23946 44.6055 4.91738 44.4662 3.62996C44.3517 2.55546 43.6497 1.91175 42.6292 1.64932C41.4095 1.33737 40.1002 1.25319 38.8506 1.09969C27.9781 -0.232294 16.9412 -0.356084 6.03876 0.738222C4.66476 0.876867 3.29075 1.03532 1.92172 1.20862C1.59315 1.24824 1.07043 1.4364 1.03559 1.82758C1.00074 2.21875 1.45874 2.34749 1.76242 2.30788C12.1421 0.980851 22.6463 0.753077 33.0709 1.65922C35.6645 1.88204 38.2483 2.17914 40.822 2.54061C41.3 2.60993 41.8376 2.64459 42.2608 2.89217C42.7287 3.16451 42.8383 3.67453 42.8731 4.17464C42.9727 5.49672 42.9528 6.84356 42.9926 8.17059C43.1419 13.4292 43.2913 18.6928 43.4406 23.9514C43.5153 26.5807 43.59 29.21 43.6646 31.8442C43.6995 33.1614 43.7393 34.4735 43.7742 35.7907C43.804 36.8156 43.8588 37.8604 43.6846 38.8755C43.5253 39.7916 43.132 40.7621 42.206 41.1334C41.2004 41.5345 39.9608 41.4008 38.9004 41.4058C36.2619 41.4206 33.6234 41.4355 30.985 41.4503C25.6681 41.4801 20.3464 41.5147 15.0295 41.5444C12.3911 41.5593 9.75257 41.5741 7.11407 41.589C5.91928 41.5939 4.61995 41.7524 3.43512 41.5543C2.10592 41.3315 2.12583 39.95 2.09098 38.8805C1.75246 28.3731 1.75246 17.851 2.09098 7.34367C2.13579 6.03149 2.18059 4.71436 2.23535 3.40219C2.26522 2.60993 0.652258 2.86246 0.622389 3.54083H0.627367Z" fill="#0F1C1B"/>
<path d="M9.54333 23.7834C12.8788 26.2295 15.6716 29.3688 17.6679 32.9884C18.0114 33.6074 19.5746 33.2013 19.8633 32.6765C22.9399 27.0712 25.8572 21.3818 29.9643 16.4352C31.2636 14.8705 32.6426 13.3751 34.0614 11.9144C34.4447 11.5232 33.7378 11.3301 33.464 11.3301C32.9164 11.3301 32.3339 11.5331 31.9506 11.9292C29.6158 14.3357 27.3905 16.8462 25.444 19.5745C23.6966 22.0206 22.1882 24.6202 20.7395 27.2446C19.7389 29.0568 18.7532 30.879 17.7575 32.6963L19.9529 32.3843C17.9069 28.6756 15.0991 25.4471 11.674 22.9317C11.2658 22.6297 10.6087 22.7732 10.1756 22.9515C9.99138 23.0258 9.14507 23.4912 9.54831 23.7883L9.54333 23.7834Z" fill="#0F1C1B"/>
</g>
<defs>
<clipPath id="clip0_934_16388">
<rect width="47" height="44" fill="white"/>
</clipPath>
</defs>
</svg>
